<svg id="Layer_1" data-name="Layer 1" xmlns="http://www.w3.org/2000/svg" viewBox="0 0 303.27 303.27"><path d="M250,401.39c-83.47,0-151.39-67.92-151.39-151.39S166.53,98.61,250,98.61,401.39,166.53,401.39,250,333.47,401.39,250,401.39Zm0-292.78C172,108.61,108.61,172,108.61,250S172,391.39,250,391.39,391.39,328,391.39,250,328,108.61,250,108.61Z" transform="translate(-98.11 -98.61)" style="fill:#00a99d"/><path d="M108.61,250h-10c0,83.47,67.92,151.39,151.39,151.39v-10C172,391.39,108.61,328,108.61,250Z" transform="translate(-98.11 -98.61)" style="fill:#fff;stroke:#fff;stroke-miterlimit:10"/></svg>